<?xml version="1.0" encoding="UTF-8" standalone="no"?>
<!-- Created with Inkscape (http://www.inkscape.org/) -->
<svg xmlns:inkscape="http://www.inkscape.org/namespaces/inkscape" xmlns:sodipodi="http://sodipodi.sourceforge.net/DTD/sodipodi-0.dtd" xmlns="http://www.w3.org/2000/svg" xmlns:svg="http://www.w3.org/2000/svg" xmlns:rdf="http://www.w3.org/1999/02/22-rdf-syntax-ns#" xmlns:cc="http://creativecommons.org/ns#" xmlns:dc="http://purl.org/dc/elements/1.1/" version="1.1" id="svg5699" xml:space="preserve" width="1781.3333" height="1082.6667" viewBox="0 0 1781.3333 1082.6667" sodipodi:docname="logo-FPV-txtblanco.svg" inkscape:version="1.2.2 (1:1.2.2+202212051550+b0a8486541)" inkscape:export-filename="/home/ifs-equipo4/Documentos/Logo FPV/logo-FPV.png" inkscape:export-xdpi="96" inkscape:export-ydpi="96">
  <metadata id="metadata5705"></metadata>
  <defs id="defs5703">
    <filter style="color-interpolation-filters:sRGB;" inkscape:label="Drop Shadow" id="filter10637" x="-0.017985294" y="-0.071543369" width="1.0396503" height="1.1301858">
      <feFlood flood-opacity="0.498039" flood-color="rgb(0,0,0)" result="flood" id="feFlood10627"></feFlood>
      <feComposite in="flood" in2="SourceGraphic" operator="in" result="composite1" id="feComposite10629"></feComposite>
      <feGaussianBlur in="composite1" stdDeviation="94.7" result="blur" id="feGaussianBlur10631"></feGaussianBlur>
      <feOffset dx="46.5" dy="-50" result="offset" id="feOffset10633"></feOffset>
      <feComposite in="SourceGraphic" in2="offset" operator="over" result="composite2" id="feComposite10635"></feComposite>
    </filter>
    <filter style="color-interpolation-filters:sRGB;" inkscape:label="Drop Shadow" id="filter10649" x="-0.079447695" y="-0.13339741" width="1.1751499" height="1.2427402">
      <feFlood flood-opacity="0.498039" flood-color="rgb(0,0,0)" result="flood" id="feFlood10639"></feFlood>
      <feComposite in="flood" in2="SourceGraphic" operator="in" result="composite1" id="feComposite10641"></feComposite>
      <feGaussianBlur in="composite1" stdDeviation="94.7" result="blur" id="feGaussianBlur10643"></feGaussianBlur>
      <feOffset dx="46.5" dy="-50" result="offset" id="feOffset10645"></feOffset>
      <feComposite in="SourceGraphic" in2="offset" operator="over" result="composite2" id="feComposite10647"></feComposite>
    </filter>
    <filter style="color-interpolation-filters:sRGB;" inkscape:label="Drop Shadow" id="filter10661" x="-0.10934545" y="-0.13339748" width="1.2410623" height="1.2427403">
      <feFlood flood-opacity="0.498039" flood-color="rgb(0,0,0)" result="flood" id="feFlood10651"></feFlood>
      <feComposite in="flood" in2="SourceGraphic" operator="in" result="composite1" id="feComposite10653"></feComposite>
      <feGaussianBlur in="composite1" stdDeviation="94.7" result="blur" id="feGaussianBlur10655"></feGaussianBlur>
      <feOffset dx="46.5" dy="-50" result="offset" id="feOffset10657"></feOffset>
      <feComposite in="SourceGraphic" in2="offset" operator="over" result="composite2" id="feComposite10659"></feComposite>
    </filter>
    <filter style="color-interpolation-filters:sRGB;" inkscape:label="Drop Shadow" id="filter10673" x="-0.15872395" y="-0.21094754" width="1.3499218" height="1.3838564">
      <feFlood flood-opacity="0.498039" flood-color="rgb(0,0,0)" result="flood" id="feFlood10663"></feFlood>
      <feComposite in="flood" in2="SourceGraphic" operator="in" result="composite1" id="feComposite10665"></feComposite>
      <feGaussianBlur in="composite1" stdDeviation="94.7" result="blur" id="feGaussianBlur10667"></feGaussianBlur>
      <feOffset dx="46.5" dy="-50" result="offset" id="feOffset10669"></feOffset>
      <feComposite in="SourceGraphic" in2="offset" operator="over" result="composite2" id="feComposite10671"></feComposite>
    </filter>
    <filter style="color-interpolation-filters:sRGB;" inkscape:label="Drop Shadow" id="filter10685" x="-0.17939145" y="-0.41809545" width="1.3954852" height="1.7607986">
      <feFlood flood-opacity="0.498039" flood-color="rgb(0,0,0)" result="flood" id="feFlood10675"></feFlood>
      <feComposite in="flood" in2="SourceGraphic" operator="in" result="composite1" id="feComposite10677"></feComposite>
      <feGaussianBlur in="composite1" stdDeviation="94.7" result="blur" id="feGaussianBlur10679"></feGaussianBlur>
      <feOffset dx="46.5" dy="-50" result="offset" id="feOffset10681"></feOffset>
      <feComposite in="SourceGraphic" in2="offset" operator="over" result="composite2" id="feComposite10683"></feComposite>
    </filter>
    <filter style="color-interpolation-filters:sRGB;" inkscape:label="Drop Shadow" id="filter10697" x="-0.2175495" y="-0.10812117" width="1.4796082" height="1.1967456">
      <feFlood flood-opacity="0.498039" flood-color="rgb(0,0,0)" result="flood" id="feFlood10687"></feFlood>
      <feComposite in="flood" in2="SourceGraphic" operator="in" result="composite1" id="feComposite10689"></feComposite>
      <feGaussianBlur in="composite1" stdDeviation="94.7" result="blur" id="feGaussianBlur10691"></feGaussianBlur>
      <feOffset dx="46.5" dy="-50" result="offset" id="feOffset10693"></feOffset>
      <feComposite in="SourceGraphic" in2="offset" operator="over" result="composite2" id="feComposite10695"></feComposite>
    </filter>
    <filter style="color-interpolation-filters:sRGB;" inkscape:label="Drop Shadow" id="filter10709" x="-0.14018553" y="-0.1710243" width="1.3090521" height="1.311209">
      <feFlood flood-opacity="0.498039" flood-color="rgb(0,0,0)" result="flood" id="feFlood10699"></feFlood>
      <feComposite in="flood" in2="SourceGraphic" operator="in" result="composite1" id="feComposite10701"></feComposite>
      <feGaussianBlur in="composite1" stdDeviation="94.7" result="blur" id="feGaussianBlur10703"></feGaussianBlur>
      <feOffset dx="46.5" dy="-50" result="offset" id="feOffset10705"></feOffset>
      <feComposite in="SourceGraphic" in2="offset" operator="over" result="composite2" id="feComposite10707"></feComposite>
    </filter>
    <filter style="color-interpolation-filters:sRGB;" inkscape:label="Drop Shadow" id="filter10721" x="-0.12379634" y="-0.062455935" width="1.2729206" height="1.1136496">
      <feFlood flood-opacity="0.498039" flood-color="rgb(0,0,0)" result="flood" id="feFlood10711"></feFlood>
      <feComposite in="flood" in2="SourceGraphic" operator="in" result="composite1" id="feComposite10713"></feComposite>
      <feGaussianBlur in="composite1" stdDeviation="94.7" result="blur" id="feGaussianBlur10715"></feGaussianBlur>
      <feOffset dx="46.5" dy="-50" result="offset" id="feOffset10717"></feOffset>
      <feComposite in="SourceGraphic" in2="offset" operator="over" result="composite2" id="feComposite10719"></feComposite>
    </filter>
    <filter style="color-interpolation-filters:sRGB;" inkscape:label="Drop Shadow" id="filter10733" x="-0.12194768" y="-0.16412053" width="1.2688451" height="1.2986463">
      <feFlood flood-opacity="0.498039" flood-color="rgb(0,0,0)" result="flood" id="feFlood10723"></feFlood>
      <feComposite in="flood" in2="SourceGraphic" operator="in" result="composite1" id="feComposite10725"></feComposite>
      <feGaussianBlur in="composite1" stdDeviation="94.7" result="blur" id="feGaussianBlur10727"></feGaussianBlur>
      <feOffset dx="46.5" dy="-50" result="offset" id="feOffset10729"></feOffset>
      <feComposite in="SourceGraphic" in2="offset" operator="over" result="composite2" id="feComposite10731"></feComposite>
    </filter>
    <filter style="color-interpolation-filters:sRGB;" inkscape:label="Drop Shadow" id="filter10745" x="-0.081588108" y="-0.099536918" width="1.1798686" height="1.181125">
      <feFlood flood-opacity="0.498039" flood-color="rgb(0,0,0)" result="flood" id="feFlood10735"></feFlood>
      <feComposite in="flood" in2="SourceGraphic" operator="in" result="composite1" id="feComposite10737"></feComposite>
      <feGaussianBlur in="composite1" stdDeviation="94.7" result="blur" id="feGaussianBlur10739"></feGaussianBlur>
      <feOffset dx="46.5" dy="-50" result="offset" id="feOffset10741"></feOffset>
      <feComposite in="SourceGraphic" in2="offset" operator="over" result="composite2" id="feComposite10743"></feComposite>
    </filter>
    <filter style="color-interpolation-filters:sRGB" inkscape:label="Drop Shadow" id="filter10745-3" x="-0.081588108" y="-0.099536918" width="1.1798686" height="1.181125">
      <feFlood flood-opacity="0.498039" flood-color="rgb(0,0,0)" result="flood" id="feFlood10735-6"></feFlood>
      <feComposite in="flood" in2="SourceGraphic" operator="in" result="composite1" id="feComposite10737-7"></feComposite>
      <feGaussianBlur in="composite1" stdDeviation="94.7" result="blur" id="feGaussianBlur10739-5"></feGaussianBlur>
      <feOffset dx="46.5" dy="-50" result="offset" id="feOffset10741-3"></feOffset>
      <feComposite in="SourceGraphic" in2="offset" operator="over" result="composite2" id="feComposite10743-5"></feComposite>
    </filter>
    <filter style="color-interpolation-filters:sRGB" inkscape:label="Drop Shadow" id="filter10721-6" x="-0.12379634" y="-0.062455935" width="1.2729206" height="1.1136496">
      <feFlood flood-opacity="0.498039" flood-color="rgb(0,0,0)" result="flood" id="feFlood10711-2"></feFlood>
      <feComposite in="flood" in2="SourceGraphic" operator="in" result="composite1" id="feComposite10713-9"></feComposite>
      <feGaussianBlur in="composite1" stdDeviation="94.7" result="blur" id="feGaussianBlur10715-1"></feGaussianBlur>
      <feOffset dx="46.5" dy="-50" result="offset" id="feOffset10717-2"></feOffset>
      <feComposite in="SourceGraphic" in2="offset" operator="over" result="composite2" id="feComposite10719-7"></feComposite>
    </filter>
    <filter style="color-interpolation-filters:sRGB" inkscape:label="Drop Shadow" id="filter10733-0" x="-0.12194768" y="-0.16412053" width="1.2688451" height="1.2986463">
      <feFlood flood-opacity="0.498039" flood-color="rgb(0,0,0)" result="flood" id="feFlood10723-9"></feFlood>
      <feComposite in="flood" in2="SourceGraphic" operator="in" result="composite1" id="feComposite10725-3"></feComposite>
      <feGaussianBlur in="composite1" stdDeviation="94.7" result="blur" id="feGaussianBlur10727-6"></feGaussianBlur>
      <feOffset dx="46.5" dy="-50" result="offset" id="feOffset10729-0"></feOffset>
      <feComposite in="SourceGraphic" in2="offset" operator="over" result="composite2" id="feComposite10731-6"></feComposite>
    </filter>
  </defs>
  <g id="g5707" inkscape:groupmode="layer" inkscape:label="ink_ext_XXXXXX" transform="matrix(1.3333333,0,0,-1.3333333,0,1082.6667)">
    <g inkscape:groupmode="layer" id="layer3" inkscape:label="figver"></g>
    <path d="m 3878.55,6727.15 c 0,-769.26 -623.59,-1392.85 -1392.85,-1392.85 -769.25,0 -1392.85,623.59 -1392.85,1392.85 0,769.26 623.6,1392.85 1392.85,1392.85 769.26,0 1392.85,-623.59 1392.85,-1392.85 z" style="fill:#328c2c;fill-opacity:1;fill-rule:nonzero;stroke:none;filter:url(#filter10745-3)" id="path5711" inkscape:connector-curvature="0" transform="scale(0.1)"></path>
    <path d="m 1018.28,6243.24 c 154.38,-421.05 448.71,-767.5 822.03,-924.29 C 1291.13,5090.9 120.738,4137.03 253.09,1803.63 29.8789,2679.3 -427.109,4763.36 1018.28,6243.24 Z" style="fill:#328b2c;fill-opacity:1;fill-rule:nonzero;stroke:none;filter:url(#filter10721-6)" id="path5713" inkscape:connector-curvature="0" transform="scale(0.1)"></path>
    <path d="m 3935.12,7046.33 c 52.65,-207.7 69.57,-426.64 -53.05,-689.45 543.95,115.85 1182.77,-26.88 1863.75,-1000.04 -260.39,751.17 -917.77,1623.59 -1810.7,1689.49 z" style="fill:#318c2c;fill-opacity:1;fill-rule:nonzero;stroke:none;filter:url(#filter10733-0)" id="path5715" inkscape:connector-curvature="0" transform="scale(0.1)"></path>
    <g id="g5709" transform="scale(0.1)">
      <path d="m 3018.55,4349.22 c 0,-447.7 -362.96,-810.67 -810.66,-810.67 -447.69,0 -810.62,362.97 -810.62,810.67 0,447.69 362.93,810.62 810.62,810.62 447.7,0 810.66,-362.93 810.66,-810.62 z" style="fill:#ffec00;fill-opacity:1;fill-rule:nonzero;stroke:none;filter:url(#filter10709)" id="path5717" inkscape:connector-curvature="0"></path>
      <path d="M 1892.93,3484.69 C 1155.94,3070.7 1011.48,2437.5 1010.7,1443.75 c -457.149,1648.71 175.55,2336.87 367.46,2564.53 101.45,-214.1 255.94,-401.4 514.77,-523.59 z" style="fill:#ffec00;fill-opacity:1;fill-rule:nonzero;stroke:none;filter:url(#filter10697)" id="path5719" inkscape:connector-curvature="0"></path>
      <path d="m 2983.95,4761.05 c 74.33,-137.81 100.7,-280.35 88.35,-412.5 348.21,205.75 704.97,142.93 1178.6,-227.65 -244.26,378.87 -730.55,762.03 -1266.95,640.15 z" style="fill:#ffec00;fill-opacity:1;fill-rule:nonzero;stroke:none;filter:url(#filter10685)" id="path5721" inkscape:connector-curvature="0"></path>
      <path d="m 6660,3620 c 0,-573.98 -465.31,-1039.3 -1039.3,-1039.3 -573.98,0 -1039.25,465.32 -1039.25,1039.3 0,573.98 465.27,1039.3 1039.25,1039.3 573.99,0 1039.3,-465.32 1039.3,-1039.3 z" style="fill:#f07d00;fill-opacity:1;fill-rule:nonzero;stroke:none;filter:url(#filter10661)" id="path5723" inkscape:connector-curvature="0"></path>
      <path d="M 4757.15,2784.3 C 5050.98,2519.8 5334.69,2481.8 5614.3,2468.2 5198.05,1255.78 3634.45,801.48 2753.55,705.699 3306.17,877.191 4671.95,1468.63 4757.15,2784.3 Z" style="fill:#f07d00;fill-opacity:1;fill-rule:nonzero;stroke:none;filter:url(#filter10649)" id="path5725" inkscape:connector-curvature="0"></path>
      <path d="m 5196.52,4640.9 c 84.89,451.99 -287.93,1036.05 -909.14,1314.45 287.89,-100.66 1250.08,-313.9 1431.92,-1200.82 -165.32,24.85 -348.68,6.37 -522.78,-113.63 z" style="fill:#f07d00;fill-opacity:1;fill-rule:nonzero;stroke:none;filter:url(#filter10673)" id="path5727" inkscape:connector-curvature="0"></path>
      <path d="M 722.809,803.59 C 2580.74,-58.1602 4020.04,384.41 5510.94,1667.27 7047.27,3192.89 7870.66,3583.2 9329.34,3818.87 10797.4,3996.68 12091.1,3755.78 13359.8,3455.23 12268.6,3617.5 11170.4,3777.38 9465.7,3409.77 8451.48,3182.89 7465.39,2777.89 6571.6,1788.48 5178.24,338.199 4248.05,161.52 3329.02,15.6602 1677.5,-85.9805 1316.52,491.84 722.809,803.59 Z" style="fill:#2f2384;fill-opacity:1;fill-rule:nonzero;stroke:none;filter:url(#filter10637)" id="path5729" inkscape:connector-curvature="0"></path>
      <g id="g7270" style="fill:#ffffff;fill-opacity:1">
        <path d="m 6095.66,5490.66 v -290.31 h 363.99 c 16.4,0 28.4,2.81 35.97,8.4 7.58,5.82 13.21,16.56 16.92,32.34 h 20.27 V 5080.7 h -20.27 c -3.71,15.12 -9.34,25.47 -16.92,31.1 -7.57,5.58 -19.57,8.36 -35.97,8.36 h -363.99 v -323.21 c 0,-16.17 2.74,-28.2 8.29,-36.05 5.54,-7.89 15.78,-13.71 30.74,-17.42 v -20.51 h -174.92 v 20.51 c 15.35,3.71 25.7,9.41 31.05,17.11 5.31,7.85 7.97,19.96 7.97,36.36 v 701.17 c 0,16.57 -2.66,28.68 -7.97,36.37 -5.35,7.66 -15.7,13.36 -31.05,17.07 v 20.51 h 682.5 c 16.17,0 28.16,2.7 35.97,8.09 7.78,5.58 13.4,16.05 16.92,31.4 h 20.27 v -160.39 h -20.27 c -3.52,15.35 -9.14,25.71 -16.92,31.1 -7.81,5.58 -19.8,8.39 -35.97,8.39 z" style="fill:#ffffff;fill-opacity:1;fill-rule:nonzero;stroke:none" id="path5731" inkscape:connector-curvature="0"></path>
        <path d="m 6725.27,5402.7 v 16.79 h 167.23 v -16.79 c -15.55,-3.72 -26.21,-9.42 -31.95,-17.11 -5.55,-7.66 -8.32,-19.77 -8.32,-36.37 V 4959.8 c 0,-65.7 14.37,-110.66 43.04,-134.88 36.92,-29.84 100.24,-44.76 190,-44.76 99.18,0 165.9,18.24 200.12,54.68 21.13,21.37 31.68,60 31.68,115.94 v 398.44 c 0,16.6 -2.85,28.71 -8.59,36.37 -5.55,7.69 -16.1,13.39 -31.68,17.11 v 16.79 h 152.18 v -16.79 c -14.96,-3.72 -25.19,-9.42 -30.74,-17.11 -5.54,-7.66 -8.32,-19.77 -8.32,-36.37 v -375.43 c 0,-51.6 -4.37,-93.75 -13.2,-126.52 -8.83,-32.5 -29.1,-60.79 -60.86,-84.85 -29.73,-22.15 -64.38,-36.76 -103.95,-43.83 -39.33,-7.22 -84.1,-10.86 -134.33,-10.86 -35.04,0 -67.03,1.57 -95.9,4.65 -28.91,2.93 -57.38,9.34 -85.47,19.3 -27.89,10.16 -52.19,24.65 -72.89,43.52 -25.39,24.02 -41.6,51.36 -48.55,82.03 -6.96,30.66 -10.47,69.53 -10.47,116.56 v 375.43 c 0,16.6 -2.66,28.71 -7.97,36.37 -5.35,7.69 -15.71,13.39 -31.06,17.11 z" style="fill:#ffffff;fill-opacity:1;fill-rule:nonzero;stroke:none" id="path5733" inkscape:connector-curvature="0"></path>
        <path d="m 7675.86,5309.77 v -516.88 c 0,-16.37 2.54,-28.28 7.66,-35.74 5.35,-7.27 15.78,-13.17 31.36,-17.7 v -16.48 H 7562.7 v 16.48 c 15.58,4.53 25.93,10.43 31.05,17.7 5.35,7.46 8.01,19.37 8.01,35.74 v 555.12 c 0,16.56 -2.66,28.67 -8.01,36.37 -5.31,7.65 -15.66,13.35 -31.05,17.07 v 18.04 h 224.14 v -18.04 c -21.96,-5.4 -32.89,-15.12 -32.89,-29.22 0,-13.68 7.96,-29.42 23.98,-47.23 l 405.51,-459.38 v 482.39 c 0,16.56 -2.7,28.67 -8.01,36.37 -5.35,7.65 -15.7,13.35 -31.05,17.07 v 18.04 h 152.5 v -18.04 c -15.4,-3.72 -25.75,-9.42 -31.06,-17.07 -5.35,-7.7 -8.01,-19.81 -8.01,-36.37 v -555.12 c 0,-16.37 2.58,-28.28 7.7,-35.74 5.31,-7.27 15.78,-13.17 31.37,-17.7 v -16.48 h -180.16 v 16.48 c 11.68,3.91 19.76,7.15 24.26,9.61 4.72,2.5 7.07,7.35 7.07,14.61 0,8.91 -2.35,16.37 -7.07,22.38 -4.69,6.02 -12.39,14.73 -23.05,26.1 z" style="fill:#ffffff;fill-opacity:1;fill-rule:nonzero;stroke:none" id="path5735" inkscape:connector-curvature="0"></path>
        <path d="m 8445.35,4722.97 v 16.48 c 15.59,4.53 25.94,10.43 31.06,17.7 5.31,7.46 7.97,19.37 7.97,35.74 v 555.12 c 0,16.56 -2.66,28.67 -7.97,36.37 -5.36,7.65 -15.71,13.35 -31.06,17.07 v 18.04 h 348.63 c 38.52,0 73.29,-1.87 104.22,-5.62 30.94,-3.71 61.18,-11.49 90.71,-23.28 29.68,-11.84 56.25,-29.03 79.61,-51.61 22.96,-22.18 42.42,-47.85 58.39,-77.07 16.21,-29.21 28.29,-60.19 36.29,-92.93 8.21,-32.53 12.31,-65.39 12.31,-98.55 0,-50.74 -9.22,-99.96 -27.66,-147.62 -18.24,-47.65 -44.69,-87.54 -79.33,-119.65 -35.67,-32.96 -75,-54.61 -118.05,-64.96 -43.05,-10.15 -95.2,-15.23 -156.49,-15.23 z m 126.95,67.42 h 216.76 c 32.58,0 62.19,1.88 88.83,5.63 26.88,3.71 52.5,11.28 76.88,22.65 24.61,11.41 45.7,27.89 63.32,49.45 43.67,52.19 65.5,119.65 65.5,202.31 0,85.78 -21.83,153.75 -65.5,203.91 -26.64,31.09 -58.52,51.48 -95.59,61.21 -36.91,9.96 -81.37,14.92 -133.44,14.92 H 8572.3 Z" style="fill:#ffffff;fill-opacity:1;fill-rule:nonzero;stroke:none" id="path5737" inkscape:connector-curvature="0"></path>
        <path d="m 9704.61,4919.06 h -361.25 l -52.89,-117.15 c -5.94,-13.04 -8.91,-24.96 -8.91,-35.74 1.02,-12.03 11.49,-20.94 31.37,-26.72 v -16.48 h -170 v 16.48 c 26.64,5.78 47.23,24.03 61.8,54.69 l 237.93,524.65 c 12.69,29.22 19.06,49.1 19.06,59.65 0,13.67 -10.55,21.36 -31.68,23.01 v 18.04 h 200.16 v -18.04 c -20.08,-3.52 -30.12,-12 -30.12,-25.47 0,-6.84 1.21,-13.99 3.67,-21.45 2.66,-7.26 6.05,-15.04 10.16,-23.32 4.1,-8.28 7.89,-15.86 11.36,-22.69 l 217.97,-481.14 c 13.13,-27.97 24.81,-48.9 35.04,-62.77 10.27,-13.87 25,-22.27 44.3,-25.16 v -16.48 h -180.16 v 16.48 c 19.26,3.71 28.87,11.37 28.87,22.97 0,2.7 -0.27,4.88 -0.9,6.53 -0.62,1.87 -1.33,3.63 -2.15,5.31 -0.62,1.64 -1.25,3.2 -1.83,4.65 z m -30.16,67.46 -150,341.25 -152.18,-341.25 z" style="fill:#ffffff;fill-opacity:1;fill-rule:nonzero;stroke:none" id="path5739" inkscape:connector-curvature="0"></path>
        <path d="m 10677.9,5367.27 -76.8,-133.95 -15.1,8.98 c 3.3,12.04 4.9,18.87 4.9,20.55 0,11.8 -5.1,21.21 -15.3,28.28 -10.1,7.23 -24.2,15.63 -42.5,25.16 -58.8,29.65 -124.7,44.45 -197.7,44.45 -88.1,0 -161.6,-24.14 -220.4,-72.42 -65.6,-54.49 -98.4,-129.18 -98.4,-224.1 0,-41.45 10,-81.41 29.8,-119.96 19.9,-38.32 46.6,-70.55 80,-96.68 56.1,-44.96 126.3,-67.42 210.3,-67.42 40.3,0 80.5,6.83 120.5,20.5 39.9,13.87 75.3,33.36 106,58.44 6.4,4.57 12.2,8.91 17.3,13.05 5.3,4.33 10.2,9.33 14.7,14.92 4.7,5.59 7.1,11.17 7.1,16.8 0,4.14 -1.6,10.04 -4.6,17.69 -3.1,7.89 -5.4,12.54 -6.8,13.99 l 13.9,9.02 97.1,-123.71 -12.6,-11.17 c -12.9,12.61 -23,18.94 -30.4,18.94 -4.6,0 -10,-2.58 -16.3,-7.77 -45.1,-36.45 -94.5,-64.45 -148.2,-83.91 -53.7,-19.49 -109.2,-29.22 -166.6,-29.22 -113.2,0 -205.5,29.73 -277.1,89.22 -38.9,32.31 -69.61,72.19 -92.18,119.65 -22.54,47.46 -33.79,96.64 -33.79,147.62 0,57.81 10.54,109.61 31.64,155.43 21.33,45.97 50.73,84.92 88.23,116.83 37.7,31.92 81,56.06 129.7,72.43 49,16.36 101.4,24.57 157.1,24.57 100,0 195,-24.69 284.7,-73.99 10.9,-4.14 17.1,-6.21 18.8,-6.21 6.5,0 15.9,7.15 28,21.45 z" style="fill:#ffffff;fill-opacity:1;fill-rule:nonzero;stroke:none" id="path5741" inkscape:connector-curvature="0"></path>
        <path d="m 10996.4,4739.45 v -16.48 h -167.2 v 16.48 c 15.6,4.53 25.9,10.43 31,17.7 5.4,7.46 8,19.37 8,35.74 v 555.12 c 0,16.56 -2.6,28.67 -8,36.37 -5.3,7.65 -15.7,13.35 -31,17.07 v 18.04 h 167.2 v -18.04 c -15.5,-3.72 -26.2,-9.42 -32,-17.07 -5.5,-7.7 -8.3,-19.81 -8.3,-36.37 v -555.12 c 0,-16.17 2.8,-27.97 8.3,-35.43 5.6,-7.26 16.2,-13.24 32,-18.01 z" style="fill:#ffffff;fill-opacity:1;fill-rule:nonzero;stroke:none" id="path5743" inkscape:connector-curvature="0"></path>
        <path d="m 11958.7,5070.43 c 0,-50.98 -10.5,-99.84 -31.4,-146.68 -20.7,-46.64 -50.1,-86.41 -88.2,-119.37 -75.6,-64.42 -173.9,-96.65 -294.8,-96.65 -121.8,0 -220.4,32.23 -295.8,96.65 -37.9,32.77 -67.4,72.53 -88.5,119.37 -20.9,46.84 -31.4,95.7 -31.4,146.68 0,51.41 10.5,100.39 31.4,147.03 21.1,46.84 50.6,86.49 88.5,119.02 38.8,33.36 83.5,57.82 134.4,73.36 50.8,15.75 104.6,23.64 161.4,23.64 120.9,0 219.2,-32.35 294.8,-97 38.1,-32.73 67.5,-72.42 88.2,-119.02 20.9,-46.64 31.4,-95.62 31.4,-147.03 z m -91.9,0 c 0,58.67 -14.8,110.04 -44.3,154.18 -29.3,44.14 -68.8,77.81 -118.4,101.01 -49.4,23.4 -102.7,35.12 -159.8,35.12 -57.6,0 -111.3,-11.72 -161.1,-35.12 -49.6,-23.2 -89.2,-56.87 -118.7,-101.01 -29.3,-44.14 -43.9,-95.51 -43.9,-154.18 0,-58.63 14.6,-110 43.9,-154.14 29.5,-44.14 69.1,-77.93 118.7,-101.33 49.8,-23.2 103.5,-34.8 161.1,-34.8 57.1,0 110.4,11.6 159.8,34.8 49.6,23.4 89.1,57.19 118.4,101.33 29.5,44.14 44.3,95.51 44.3,154.14 z m -320.1,583.09 h 142.4 v -16.49 c -13.7,-1.25 -24.2,-7.15 -31.4,-17.69 l -79.3,-106.92 c -3.5,-4.57 -5.2,-8.01 -5.2,-10.27 0,-6.84 5.4,-10.24 16.2,-10.24 v -16.48 h -105.7 v 16.48 c 14.4,0 24.5,7.66 30.4,22.97 l 46.5,100.39 c -0.2,3.56 -1.3,7.89 -3.1,13.09 -1.9,5.35 -5.4,8.28 -10.8,8.67 z" style="fill:#ffffff;fill-opacity:1;fill-rule:nonzero;stroke:none" id="path5745" inkscape:connector-curvature="0"></path>
        <path d="m 12201.6,5309.77 v -516.88 c 0,-16.37 2.5,-28.28 7.7,-35.74 5.3,-7.27 15.7,-13.17 31.3,-17.7 v -16.48 h -152.2 v 16.48 c 15.6,4.53 25.9,10.43 31,17.7 5.4,7.46 8.1,19.37 8.1,35.74 v 555.12 c 0,16.56 -2.7,28.67 -8.1,36.37 -5.3,7.65 -15.6,13.35 -31,17.07 v 18.04 h 224.1 v -18.04 c -21.9,-5.4 -32.9,-15.12 -32.9,-29.22 0,-13.68 8,-29.42 24,-47.23 l 405.5,-459.38 v 482.39 c 0,16.56 -2.7,28.67 -8,36.37 -5.3,7.65 -15.6,13.35 -31,17.07 v 18.04 h 152.5 v -18.04 c -15.4,-3.72 -25.8,-9.42 -31.1,-17.07 -5.3,-7.7 -8,-19.81 -8,-36.37 v -555.12 c 0,-16.37 2.6,-28.28 7.7,-35.74 5.3,-7.27 15.8,-13.17 31.4,-17.7 v -16.48 h -180.2 v 16.48 c 11.7,3.91 19.8,7.15 24.3,9.61 4.7,2.5 7.1,7.35 7.1,14.61 0,8.91 -2.4,16.37 -7.1,22.38 -4.7,6.02 -12.4,14.73 -23.1,26.1 z" style="fill:#ffffff;fill-opacity:1;fill-rule:nonzero;stroke:none" id="path5747" inkscape:connector-curvature="0"></path>
        <path d="M 6832.46,4303.05 V 4113.4 c 0,-13.4 9.88,-22.23 29.69,-26.6 v -12.27 h -133.13 v 12.27 c 19.85,4.22 29.73,13.08 29.73,26.6 v 430.19 c 0,13.52 -9.88,22.39 -29.73,26.61 v 12.26 h 336.45 c 40.12,0 74.26,-1.6 102.5,-4.84 28.24,-3.21 54.1,-10.71 77.65,-22.5 23.25,-11.64 41.37,-27.58 54.3,-47.78 12.93,-20.07 19.42,-41.75 19.42,-65.07 0,-22.04 -6.64,-43.32 -19.89,-63.75 -13.08,-20.47 -31.36,-36.53 -54.76,-48.17 -24.03,-11.52 -50.12,-18.94 -78.36,-22.3 -28.09,-3.36 -61.68,-5 -100.86,-5 z m 0,47.97 h 239.57 c 29.02,0 53.28,0.97 72.77,2.96 19.65,1.96 37.58,6.57 53.79,13.75 15.47,7.19 27.15,17.47 35.12,30.86 7.97,13.4 11.91,27.93 11.91,43.68 0,15.62 -3.94,30.31 -11.91,44.06 -7.81,13.79 -19.49,24.26 -35.12,31.44 -17.46,7.31 -35.62,11.76 -54.49,13.36 -18.87,1.76 -42.89,2.62 -72.07,2.62 h -239.57 z" style="fill:#ffffff;fill-opacity:1;fill-rule:nonzero;stroke:none" id="path5749" inkscape:connector-curvature="0"></path>
        <path d="m 7504.18,4262.7 v -146.33 c 0,-9.65 2.11,-16.72 6.33,-21.17 4.18,-4.34 12.3,-7.93 24.29,-10.79 v -9.88 h -127.26 v 9.88 c 11.87,2.7 19.73,6.25 23.63,10.59 4.06,4.45 6.1,11.6 6.1,21.37 v 332.03 c 0,9.92 -2.04,17.19 -6.1,21.76 -4.06,4.61 -11.91,8 -23.63,10.23 v 10.78 h 311.41 c 31.05,0 58.28,-1.72 81.67,-5.19 23.4,-3.36 44.38,-10.55 62.93,-21.57 17.47,-9.92 30.94,-22.5 40.47,-37.73 9.53,-15.27 14.26,-31.64 14.26,-49.1 0,-65.94 -49.8,-103.01 -149.49,-111.17 l 131.25,-165.28 c 7.34,-9.29 19.8,-15.11 37.42,-17.46 v -9.14 h -129.37 v 9.88 c 12.18,2.7 18.24,5.75 18.24,9.11 0,2.1 -3.48,8.24 -10.51,18.39 l -120.98,150.79 z m 0,41.09 h 200.27 c 47.89,0 84.77,4.02 110.67,12.07 25.9,8.05 38.83,27.89 38.83,59.49 0,11.02 -3.05,21.68 -9.11,31.99 -5.93,10.28 -14.37,18.64 -25.27,25.08 -21.99,11.64 -58.12,17.5 -108.32,17.5 h -207.07 z" style="fill:#ffffff;fill-opacity:1;fill-rule:nonzero;stroke:none" id="path5751" inkscape:connector-curvature="0"></path>
        <path d="m 8609.18,4282.38 c 0,-30.47 -7.93,-59.72 -23.83,-87.73 -15.78,-27.89 -38.16,-51.68 -67.15,-71.41 -57.58,-38.51 -132.38,-57.81 -224.37,-57.81 -92.66,0 -167.7,19.3 -225.08,57.81 -28.87,19.61 -51.33,43.4 -67.38,71.41 -15.94,28.01 -23.87,57.26 -23.87,87.73 0,30.74 7.93,60.08 23.87,87.93 16.05,28.05 38.51,51.76 67.38,71.21 29.45,19.96 63.55,34.61 102.23,43.91 38.67,9.41 79.61,14.1 122.85,14.1 91.99,0 166.79,-19.33 224.37,-58.01 28.99,-19.57 51.37,-43.32 67.15,-71.21 15.9,-27.85 23.83,-57.19 23.83,-87.93 z m -69.92,0 c 0,35.08 -11.25,65.82 -33.71,92.23 -22.31,26.41 -52.35,46.52 -90.08,60.43 -37.58,13.98 -78.13,21.01 -121.64,21.01 -43.83,0 -84.73,-7.03 -122.62,-21.01 -37.73,-13.91 -67.85,-34.02 -90.31,-60.43 -22.31,-26.41 -33.44,-57.15 -33.44,-92.23 0,-35.08 11.13,-65.82 33.44,-92.18 22.46,-26.41 52.58,-46.61 90.31,-60.63 37.89,-13.87 78.79,-20.82 122.62,-20.82 43.51,0 84.06,6.95 121.64,20.82 37.73,14.02 67.77,34.22 90.08,60.63 22.46,26.36 33.71,57.1 33.71,92.18 z" style="fill:#ffffff;fill-opacity:1;fill-rule:nonzero;stroke:none" id="path5753" inkscape:connector-curvature="0"></path>
        <path d="m 8899.53,4133.87 168.48,304.68 c 4.53,10.32 6.79,17.11 6.79,20.47 0,12.5 -9.29,19.65 -27.85,21.37 v 10.78 h 130.32 v -10.78 c -14.81,-2.85 -25.43,-8.12 -31.8,-15.82 -6.25,-7.54 -14.45,-20.55 -24.57,-39.02 l -160.04,-290.04 c -7.66,-13.13 -11.48,-24.03 -11.48,-32.7 0,-8.94 8.59,-15.08 25.74,-18.4 v -9.88 H 8813.2 v 9.88 c 17.35,3.32 25.98,9.73 25.98,19.14 0,9.03 -3.59,19.69 -10.74,31.96 l -164.73,290.04 c -9.37,16.87 -17.62,29.49 -24.8,37.93 -7.19,8.43 -18.09,14.06 -32.74,16.91 v 10.78 h 144.81 v -10.78 c -17.93,-1.99 -26.92,-8.79 -26.92,-20.43 0,-6.44 2.27,-13.59 6.8,-21.41 z" style="fill:#ffffff;fill-opacity:1;fill-rule:nonzero;stroke:none" id="path5755" inkscape:connector-curvature="0"></path>
        <path d="m 9363.28,4084.41 v -9.88 h -127.3 v 9.88 c 11.87,2.7 19.76,6.25 23.63,10.59 4.06,4.45 6.09,11.6 6.09,21.37 v 332.03 c 0,9.92 -2.03,17.19 -6.09,21.76 -4.02,4.61 -11.91,8 -23.63,10.23 v 10.78 h 127.3 v -10.78 c -11.87,-2.23 -19.96,-5.62 -24.33,-10.23 -4.22,-4.57 -6.33,-11.84 -6.33,-21.76 v -332.03 c 0,-9.65 2.11,-16.72 6.33,-21.17 4.21,-4.34 12.3,-7.93 24.33,-10.79 z m -52.66,546.76 h 108.33 v -9.84 c -10.43,-0.74 -18.4,-4.3 -23.87,-10.63 l -60.35,-63.94 c -2.66,-2.74 -3.99,-4.77 -3.99,-6.14 0,-4.1 4.14,-6.13 12.42,-6.13 v -9.84 h -80.5 v 9.84 c 10.93,0 18.63,4.57 23.16,13.75 l 35.35,60.04 c -0.15,2.11 -0.94,4.73 -2.34,7.81 -1.41,3.25 -4.14,4.96 -8.21,5.24 z" style="fill:#ffffff;fill-opacity:1;fill-rule:nonzero;stroke:none" id="path5757" inkscape:connector-curvature="0"></path>
        <path d="m 10036.2,4459.96 -58.54,-80.16 -11.45,5.4 c 2.5,7.18 3.75,11.28 3.75,12.26 0,7.07 -3.91,12.74 -11.72,16.92 -7.62,4.37 -18.4,9.37 -32.26,15.07 -44.77,17.74 -94.93,26.6 -150.47,26.6 -67.07,0 -122.97,-14.45 -167.74,-43.32 -49.92,-32.61 -74.88,-77.3 -74.88,-134.06 0,-24.76 7.58,-48.71 22.7,-71.76 15.15,-22.93 35.43,-42.18 60.82,-57.81 42.77,-26.91 96.09,-40.35 160.04,-40.35 30.74,0 61.32,4.1 91.71,12.27 30.43,8.32 57.35,19.96 80.75,34.96 4.8,2.73 9.18,5.31 13.08,7.81 4.06,2.58 7.81,5.59 11.25,8.91 3.56,3.35 5.35,6.71 5.35,10.03 0,2.5 -1.17,6.02 -3.51,10.63 -2.31,4.69 -4.03,7.5 -5.12,8.36 l 10.51,5.39 73.93,-73.99 -9.6,-6.71 c -9.8,7.57 -17.5,11.36 -23.2,11.36 -3.4,0 -7.5,-1.56 -12.3,-4.65 -34.38,-21.83 -71.96,-38.55 -112.82,-50.19 -40.86,-11.68 -83.12,-17.5 -126.79,-17.5 -86.14,0 -156.37,17.77 -210.82,53.36 -29.65,19.33 -53.05,43.2 -70.2,71.56 -17.15,28.4 -25.74,57.85 -25.74,88.32 0,34.57 8.05,65.59 24.1,92.97 16.25,27.5 38.63,50.82 67.15,69.88 28.71,19.1 61.64,33.56 98.75,43.32 37.27,9.81 77.11,14.69 119.57,14.69 76.09,0 148.32,-14.73 216.64,-44.22 8.24,-2.5 12.96,-3.75 14.26,-3.75 5,0 12.1,4.3 21.3,12.85 z" style="fill:#ffffff;fill-opacity:1;fill-rule:nonzero;stroke:none" id="path5759" inkscape:connector-curvature="0"></path>
        <path d="m 10403.2,4450.66 v -334.29 c 0,-9.65 2.2,-16.72 6.4,-21.17 4.2,-4.34 12.3,-7.93 24.3,-10.79 v -9.88 h -127.5 v 9.88 c 11.8,2.7 19.7,6.25 23.6,10.59 4.1,4.45 6.1,11.6 6.1,21.37 v 334.29 h -170.5 c -12.4,0 -21.4,-1.75 -27.2,-5.23 -5.8,-3.32 -10.1,-9.73 -13.1,-19.14 h -12.4 v 88.32 h 12.4 c 3,-8.95 7.3,-15.08 13.1,-18.4 5.9,-3.36 15,-5.04 27.2,-5.04 h 409.2 c 12,0 20.9,1.68 26.6,5.04 5.8,3.44 10,9.57 12.7,18.4 h 13.3 v -88.32 h -13.3 c -2.7,9.3 -7,15.66 -12.9,19.14 -5.9,3.48 -15.1,5.23 -27.4,5.23 z" style="fill:#ffffff;fill-opacity:1;fill-rule:nonzero;stroke:none" id="path5761" inkscape:connector-curvature="0"></path>
        <path d="m 10827.7,4084.41 v -9.88 h -127.3 v 9.88 c 11.9,2.7 19.7,6.25 23.6,10.59 4.1,4.45 6.1,11.6 6.1,21.37 v 332.03 c 0,9.92 -2,17.19 -6.1,21.76 -4,4.61 -11.9,8 -23.6,10.23 v 10.78 h 127.3 v -10.78 c -11.9,-2.23 -20,-5.62 -24.4,-10.23 -4.2,-4.57 -6.3,-11.84 -6.3,-21.76 v -332.03 c 0,-9.65 2.1,-16.72 6.3,-21.17 4.2,-4.34 12.4,-7.93 24.4,-10.79 z" style="fill:#ffffff;fill-opacity:1;fill-rule:nonzero;stroke:none" id="path5763" inkscape:connector-curvature="0"></path>
        <path d="m 11249.5,4074.53 -222.5,351.02 v -309.18 c 0,-9.77 1.9,-16.92 5.9,-21.37 4,-4.34 12,-7.89 23.8,-10.59 v -9.88 h -115.8 v 9.88 c 11.9,2.7 19.7,6.25 23.6,10.59 4.1,4.45 6.1,11.6 6.1,21.37 v 332.03 c 0,9.92 -2,17.19 -6.1,21.76 -4,4.61 -11.9,8 -23.6,10.23 v 10.78 h 160 v -10.78 c -16,-2.46 -24.1,-7.07 -24.1,-13.75 0,-4.84 3.9,-13.44 11.5,-25.86 l 165.9,-265.66 165.9,265.66 c 7.6,11.29 11.4,19.42 11.4,24.38 0,7.42 -7.6,12.5 -22.9,15.23 v 10.78 h 160 v -10.78 c -11.3,-2.23 -19.2,-5.7 -23.4,-10.39 -4.1,-4.61 -6.3,-11.8 -6.3,-21.6 v -332.03 c 0,-9.53 2.1,-16.53 6.1,-21.02 4.2,-4.45 12.1,-8.08 23.6,-10.94 v -9.88 h -126.5 v 9.88 c 11.7,2.86 19.5,6.45 23.6,10.79 4.1,4.45 6.1,11.52 6.1,21.17 v 309.18 z" style="fill:#ffffff;fill-opacity:1;fill-rule:nonzero;stroke:none" id="path5765" inkscape:connector-curvature="0"></path>
        <path d="m 12055.3,4191.88 h -274.9 l -40.2,-70.12 c -4.6,-7.81 -6.8,-14.92 -6.8,-21.37 0.7,-7.19 8.7,-12.54 23.8,-15.98 v -9.88 h -129.3 v 9.88 c 20.2,3.44 35.9,14.38 47,32.7 l 181,313.83 c 9.7,17.46 14.6,29.37 14.6,35.7 0,8.16 -8.1,12.77 -24.1,13.75 v 10.78 h 152.3 v -10.78 c -15.3,-2.11 -23,-7.19 -23,-15.23 0,-4.11 1,-8.36 2.9,-12.86 2,-4.33 4.6,-8.98 7.7,-13.94 3.1,-4.92 6,-9.45 8.6,-13.56 l 165.9,-287.81 c 10,-16.72 18.9,-29.22 26.7,-37.54 7.8,-8.28 19,-13.32 33.7,-15.04 v -9.88 h -137.1 v 9.88 c 14.7,2.23 22,6.8 22,13.75 0,1.61 -0.3,2.89 -0.7,3.91 -0.5,1.09 -1,2.15 -1.6,3.16 -0.5,0.98 -1,1.92 -1.5,2.78 z m -22.9,40.31 -114.2,204.14 -115.8,-204.14 z" style="fill:#ffffff;fill-opacity:1;fill-rule:nonzero;stroke:none" id="path5767" inkscape:connector-curvature="0"></path>
        <path d="m 12771.9,4469.06 -50.7,-80.7 -11.5,3.71 c 1.2,7.19 1.9,12.54 1.9,16.02 0,4.45 -3,8.24 -8.9,11.32 -5.9,3.21 -12.9,6.33 -20.8,9.3 -42.5,18.2 -93.5,27.34 -153.3,27.34 -44.8,0 -86.3,-6.28 -124.7,-18.78 -38.2,-12.39 -57.3,-33.79 -57.3,-64.15 0,-12.03 4.2,-22.89 12.6,-32.53 8.6,-9.54 20.4,-16.49 35.3,-20.82 16.9,-4.34 38.3,-7.39 64.1,-9.11 15.3,-0.39 32,-0.93 50.1,-1.68 18.2,-0.74 32.9,-1.25 44,-1.48 42.1,-1.13 75.5,-2.97 100.2,-5.59 24.6,-2.46 47.4,-8.47 68.3,-18.04 19.6,-8.91 34.4,-21.29 44.4,-37.15 10,-15.74 15,-33.05 15,-51.88 0,-29.76 -12.5,-54.37 -37.4,-73.82 -25,-19.34 -56.1,-33.44 -93.4,-42.39 -37.1,-8.79 -73.7,-13.2 -109.7,-13.2 -62.2,0 -121.4,8.87 -177.4,26.6 -27.1,8.67 -50.8,17.27 -70.9,25.82 -4.3,2.62 -7.9,3.91 -10.5,3.91 -4.4,0 -10,-2.78 -17.1,-8.36 l -4.9,-4.65 -10.5,5.39 59.4,79.22 11.5,-4.65 c -3.1,-2.5 -4.7,-7.81 -4.7,-16.01 0,-2.58 1.9,-5.51 5.6,-8.72 3.9,-3.12 8.7,-6.13 14.5,-9.14 5.8,-2.96 11.3,-5.54 16.6,-7.77 5.5,-2.27 9.2,-3.79 11,-4.65 53.7,-22.46 111.9,-33.67 174.6,-33.67 25.9,0 52.5,2.66 80,8.01 27.4,5.43 50.8,14.57 70.2,27.3 19.3,12.89 29,29.81 29,50.78 0,11.53 -4.2,22.11 -12.6,31.8 -8.3,9.77 -19.2,16.72 -32.6,20.82 -13.2,3.44 -27,5.94 -41.4,7.42 -14.3,1.49 -32.8,2.46 -55.5,2.97 -22.4,0.63 -34.2,0.94 -35.3,0.94 -45.7,1.72 -79.1,3.4 -100.3,5 -21.1,1.64 -44.4,5.86 -70,12.66 -25.6,6.95 -46.4,17.96 -62.5,33.08 -16,15.12 -24.1,35.51 -24.1,61.17 0,29.77 12.4,54.22 37.2,73.44 24.9,19.34 55.6,33.4 92.5,42.19 36.8,8.83 73.1,13.2 109,13.2 71.1,0 139.5,-11.72 205.2,-35.12 9.3,-2.96 14.8,-4.45 16.4,-4.45 6.2,0 12.2,4.49 18,13.56 z" style="fill:#ffffff;fill-opacity:1;fill-rule:nonzero;stroke:none" id="path5769" inkscape:connector-curvature="0"></path>
        <path d="m 6071.33,796.211 -74.77,225.199 c -2.77,9.33 -5.54,15.5 -8.28,18.51 -3.87,4.34 -9.57,4.3 -17.11,-0.08 l -4.72,5.28 49.68,44.68 4.73,-5.27 c -5.08,-8.05 -6.17,-16.68 -3.28,-25.94 l 79.1,-241.91 c 0.47,-1.289 1.17,-3.278 2.11,-6.02 0.9,-2.648 1.83,-4.918 2.81,-6.871 0.94,-1.879 1.95,-3.437 3.09,-4.726 3.94,-4.372 9.45,-4.333 16.52,0.117 l 4.73,-5.27 -60.24,-54.14 -4.72,5.269 c 5.15,6.563 5.9,11.91 2.14,16.09 -2.81,3.133 -8.43,6.57 -16.87,10.242 l -219.06,98.899 c -4.92,2.312 -8.79,4.031 -11.57,5.199 -2.73,1.211 -5.39,2.113 -7.92,2.691 -2.62,0.672 -5.55,0.82 -8.79,0.469 -3.29,-0.227 -6.72,-1.207 -10.36,-2.93 l -4.76,5.281 52.11,46.79 4.72,-5.27 c -4.96,-6.758 -5.5,-12.34 -1.56,-16.719 3.64,-4.019 9.26,-7.66 16.84,-10.859 z" style="fill:#ffffff;fill-opacity:1;fill-rule:nonzero;stroke:none" id="path5771" inkscape:connector-curvature="0"></path>
        <path d="m 6269.49,930.66 3.79,-4.25 -43.44,-39.07 -3.82,4.223 c 3,4.808 4.33,8.75 3.98,11.839 -0.35,3.118 -2.42,6.828 -6.17,11.008 l -128.32,142.66 c -3.83,4.26 -7.31,6.76 -10.47,7.5 -3.16,0.7 -7.19,-0.23 -12.03,-2.89 l -4.18,4.65 43.47,39.06 4.15,-4.61 c -3.17,-4.61 -4.61,-8.55 -4.34,-11.87 0.31,-3.29 2.42,-7.03 6.25,-11.29 l 128.28,-142.659 c 3.75,-4.141 7.19,-6.52 10.35,-7.148 3.13,-0.583 7.27,0.386 12.5,2.847 z" style="fill:#ffffff;fill-opacity:1;fill-rule:nonzero;stroke:none" id="path5773" inkscape:connector-curvature="0"></path>
        <path d="m 6313.36,962.5 -3.79,4.219 c 2.97,4.801 4.3,8.75 3.95,11.832 -0.32,3.129 -2.39,6.84 -6.18,11.058 l -128.28,142.661 c -3.83,4.25 -7.3,6.75 -10.47,7.46 -3.16,0.74 -7.14,-0.24 -12.03,-2.85 l -4.14,4.64 90.59,81.45 c 10,8.98 19.45,16.64 28.36,22.89 8.9,6.29 18.55,11.33 28.94,15.19 10.47,3.91 21.33,5.71 32.62,5.36 11.09,-0.36 22.11,-2.39 33.01,-6.18 10.94,-3.71 21.25,-8.86 30.9,-15.39 9.64,-6.44 18.28,-13.94 25.93,-22.46 11.76,-13.04 20.75,-27.85 26.96,-44.41 6.25,-16.52 8.59,-32.93 7.03,-49.3 -1.64,-16.79 -6.88,-31.52 -15.67,-44.26 -8.82,-12.65 -21.21,-26.17 -37.14,-40.46 z m 17.42,46.99 56.33,50.63 c 8.44,7.61 15.7,15 21.76,22.18 6.13,7.23 11.05,15.16 14.72,23.79 3.79,8.68 5.47,17.86 5.04,27.5 -0.7,23.64 -10.62,46.06 -29.72,67.31 -19.81,22.07 -41.21,34.41 -64.14,37.11 -14.11,1.76 -27.11,-0.43 -38.99,-6.6 -11.87,-6.06 -24.57,-15.16 -38.12,-27.35 l -56.29,-50.62 z" style="fill:#ffffff;fill-opacity:1;fill-rule:nonzero;stroke:none" id="path5775" inkscape:connector-curvature="0"></path>
        <path d="m 6595.35,1306.95 -93.94,-84.29 13.28,-42.46 c 1.44,-4.77 3.43,-8.52 5.93,-11.29 3.01,-2.86 7.82,-2.7 14.3,0.43 l 3.83,-4.22 -44.22,-39.69 -3.83,4.26 c 5.59,7.69 6.76,17.19 3.48,28.47 L 6435,1348.67 c -3.44,10.47 -6.37,17.07 -8.83,19.81 -3.16,3.51 -7.65,3.04 -13.51,-1.49 l -4.18,4.65 52.07,46.68 4.14,-4.61 c -4.42,-5.59 -5.04,-10.12 -1.96,-13.59 1.61,-1.76 3.56,-3.32 5.94,-4.65 2.35,-1.25 5.04,-2.46 8.01,-3.63 2.97,-1.18 5.7,-2.27 8.2,-3.21 l 167.7,-72.93 c 9.88,-4.14 17.73,-6.79 23.63,-7.97 5.86,-1.21 11.64,0.08 17.31,3.83 l 3.78,-4.22 -46.83,-42.03 -3.83,4.22 c 4.18,5.47 4.92,9.69 2.23,12.66 -0.63,0.7 -1.21,1.21 -1.76,1.48 -0.59,0.31 -1.17,0.63 -1.76,0.86 -0.55,0.27 -1.05,0.55 -1.56,0.74 z m -23.4,10.32 -117.77,52.81 39.18,-123.32 z" style="fill:#ffffff;fill-opacity:1;fill-rule:nonzero;stroke:none" id="path5777" inkscape:connector-curvature="0"></path>
        <path d="m 6831.33,1427.15 -3.75,4.26 c 3.04,4.8 4.37,8.71 4.06,11.79 -0.31,3.17 -2.34,6.88 -6.09,11.1 l -127.07,143.75 c -3.79,4.25 -7.27,6.79 -10.43,7.54 -3.13,0.78 -7.15,-0.16 -12.03,-2.74 l -4.14,4.65 91.28,80.7 c 10.08,8.91 19.61,16.45 28.56,22.66 8.94,6.21 18.63,11.17 29.06,14.96 10.51,3.83 21.37,5.51 32.66,5.08 11.09,-0.43 22.07,-2.58 32.93,-6.45 10.93,-3.83 21.21,-9.06 30.78,-15.66 9.61,-6.52 18.2,-14.1 25.78,-22.66 11.6,-13.16 20.47,-28.04 26.56,-44.65 6.13,-16.56 8.32,-33 6.64,-49.33 -1.79,-16.8 -7.15,-31.49 -16.05,-44.14 -8.95,-12.58 -21.45,-25.98 -37.46,-40.16 z m 17.81,46.87 56.72,50.16 c 8.55,7.54 15.86,14.88 21.99,21.99 6.17,7.19 11.17,15.08 14.92,23.67 3.83,8.64 5.59,17.82 5.28,27.46 -0.55,23.64 -10.28,46.14 -29.18,67.54 -19.65,22.23 -40.9,34.77 -63.83,37.66 -14.1,1.88 -27.11,-0.23 -39.02,-6.29 -11.96,-5.98 -24.73,-14.96 -38.36,-27.03 l -56.72,-50.16 z" style="fill:#ffffff;fill-opacity:1;fill-rule:nonzero;stroke:none" id="path5779" inkscape:connector-curvature="0"></path>
        <path d="m 7097.11,1668.63 3.75,-4.29 -44.06,-38.4 -3.75,4.29 c 3.08,4.77 4.45,8.68 4.18,11.72 -0.32,3.21 -2.31,6.92 -6.02,11.17 l -126.05,144.61 c -3.75,4.34 -7.23,6.88 -10.36,7.66 -3.16,0.78 -7.18,-0.12 -12.07,-2.69 l -4.1,4.72 44.07,38.4 4.1,-4.73 c -3.28,-4.53 -4.81,-8.47 -4.57,-11.79 0.31,-3.25 2.3,-7.03 6.09,-11.37 l 126.06,-144.61 c 3.67,-4.22 7.07,-6.68 10.23,-7.34 3.09,-0.63 7.27,0.27 12.5,2.65 z" style="fill:#ffffff;fill-opacity:1;fill-rule:nonzero;stroke:none" id="path5781" inkscape:connector-curvature="0"></path>
        <path d="m 7195.27,2031.84 8.4,-54.69 -5.39,-1.1 c -2.19,4.34 -3.75,7.07 -4.69,8.17 -1.79,2.11 -4.41,3.28 -7.81,3.51 -3.36,0.24 -7.42,-0.15 -12.11,-1.13 -4.76,-0.94 -7.26,-1.44 -7.5,-1.44 -24.29,-4.5 -46.29,-15.08 -65.94,-31.76 -14.76,-12.58 -25.82,-27.38 -33.12,-44.49 -7.27,-17.07 -9.77,-34.65 -7.46,-52.74 2.26,-17.97 9.76,-34.41 22.42,-49.29 13.44,-15.83 28.79,-26.33 46.05,-31.49 17.27,-5.08 34.93,-5.12 52.97,-0.12 17.97,5.04 34.73,14.14 50.24,27.31 11.87,10.12 22.15,21.87 30.74,35.31 8.63,13.4 14.18,27.19 16.64,41.33 l -28.79,33.87 -41.29,-35.04 c -4.29,-3.67 -6.79,-7.11 -7.54,-10.35 -0.74,-3.21 0.12,-7.31 2.58,-12.35 l -4.65,-3.94 -33.04,38.86 4.68,3.99 c 4.5,-3.13 8.36,-4.57 11.61,-4.38 3.2,0.28 6.99,2.27 11.28,5.94 l 72.15,61.25 3.68,-4.34 c -3.25,-4.33 -4.73,-8.2 -4.46,-11.52 0.35,-3.28 2.35,-7.07 6.02,-11.37 l 16.29,-19.18 c 3.63,-4.29 7.03,-6.87 10.19,-7.69 3.13,-0.82 7.19,0 12.15,2.46 l 3.13,-3.71 c -3.48,-23.52 -10.9,-45.47 -22.19,-65.78 -11.37,-20.28 -26.06,-38.05 -44.06,-53.32 -30.63,-26.02 -62.27,-39.26 -94.97,-39.69 -17.14,-0.08 -34.02,3.48 -50.66,10.66 -16.56,7.27 -30.31,17.31 -41.21,30.12 -12.66,14.88 -21.33,30.86 -25.98,47.85 -4.72,17.03 -5.62,34.06 -2.77,51.06 2.81,17.03 8.87,33.28 18.2,48.75 9.34,15.54 21.33,29.53 35.94,41.95 23.4,19.84 51.84,33.24 85.39,40.23 l 10.16,2.27 c 4.06,1.09 6.33,1.88 6.79,2.27 2.15,1.83 2.82,6.25 2,13.28 z" style="fill:#ffffff;fill-opacity:1;fill-rule:nonzero;stroke:none" id="path5783" inkscape:connector-curvature="0"></path>
        <path d="m 7278.59,2081.02 111.45,-139.61 c 3.55,-4.42 6.8,-7.07 9.8,-7.97 3.05,-0.82 7.15,-0.12 12.39,2.03 l 3.55,-4.45 -41.56,-33.17 -3.52,4.45 c 3.25,4.61 4.81,8.48 4.65,11.57 -0.15,3.16 -1.99,6.95 -5.55,11.36 l -119.68,149.97 c -3.56,4.49 -6.92,7.18 -10,8.08 -3.13,0.9 -7.19,0.2 -12.19,-2.15 l -3.87,4.85 61.21,48.86 3.87,-4.88 c -4.8,-6.21 -5.7,-11.25 -2.69,-15.04 2.96,-3.71 8.55,-6.21 16.75,-7.54 l 209.77,-35.7 -103.99,130.31 c -3.59,4.46 -6.91,7.15 -10.03,8.09 -3.09,0.9 -7.15,0.19 -12.15,-2.15 l -3.91,4.84 41.64,33.25 3.91,-4.85 c -3.4,-4.37 -5,-8.16 -4.81,-11.4 0.2,-3.25 2.07,-7.07 5.67,-11.57 l 119.68,-149.96 c 3.52,-4.41 6.8,-7.07 9.81,-7.97 3.01,-0.78 7.15,-0.11 12.38,2.07 l 3.56,-4.45 -49.22,-39.3 -3.52,4.46 c 2.31,3.63 3.83,6.25 4.53,7.89 0.75,1.72 0.36,3.55 -1.21,5.51 -1.91,2.42 -4.18,3.9 -6.76,4.49 -2.57,0.58 -6.56,1.29 -11.91,2.03 z" style="fill:#ffffff;fill-opacity:1;fill-rule:nonzero;stroke:none" id="path5785" inkscape:connector-curvature="0"></path>
        <path d="m 7714.38,2245.39 -101.84,-74.57 8.98,-43.59 c 1.02,-4.85 2.58,-8.79 4.81,-11.8 2.73,-3.13 7.5,-3.48 14.29,-0.98 l 3.36,-4.61 -47.93,-35.07 -3.35,4.61 c 6.32,7.1 8.39,16.44 6.25,28 l -40.04,195.43 c -2.39,10.74 -4.65,17.62 -6.8,20.55 -2.77,3.83 -7.34,3.79 -13.63,-0.08 l -3.68,5 56.45,41.33 3.67,-5.04 c -4.96,-5.12 -6.05,-9.57 -3.28,-13.32 1.37,-1.91 3.2,-3.63 5.39,-5.23 2.23,-1.45 4.77,-2.93 7.62,-4.42 2.85,-1.44 5.47,-2.77 7.85,-3.94 l 159.69,-89.22 c 9.41,-5.08 16.95,-8.52 22.69,-10.28 5.71,-1.75 11.6,-1.05 17.62,2.11 l 3.36,-4.57 -50.78,-37.18 -3.36,4.6 c 4.65,5 5.82,9.15 3.44,12.35 -0.55,0.78 -1.1,1.33 -1.61,1.64 -0.54,0.39 -1.09,0.74 -1.67,1.01 -0.51,0.36 -0.98,0.67 -1.45,0.94 z m -22.27,12.58 -111.99,64.22 26.79,-126.57 z" style="fill:#ffffff;fill-opacity:1;fill-rule:nonzero;stroke:none" id="path5787" inkscape:connector-curvature="0"></path>
        <path d="m 8003.48,2487.3 44.53,-68.71 c 3.01,-4.68 6.05,-7.57 9.06,-8.67 3.01,-1.05 7.27,-0.78 12.77,0.82 l 3.09,-4.76 -49.1,-31.84 -3.09,4.77 c 3.71,4.29 5.63,7.97 5.74,11.05 0.16,3.16 -1.28,7.11 -4.37,11.88 l -44.49,68.67 -114.69,41.01 c -12.15,4.26 -21.25,7.11 -27.38,8.52 -6.1,1.48 -12.58,1.13 -19.42,-1.09 l -3.4,5.23 56.88,36.87 3.4,-5.23 c -4.85,-3.83 -6.02,-7.73 -3.44,-11.68 2.23,-3.44 6.29,-6.21 12.23,-8.36 l 98.4,-35.27 2.81,100.9 c 0.39,6.91 -0.16,11.48 -1.6,13.71 -3.01,4.68 -7.39,5.5 -13.13,2.5 l -3.4,5.19 52.85,34.26 3.36,-5.23 c -4.84,-5.28 -7.81,-11.22 -8.9,-17.82 -2.11,-9.92 -3.56,-21.99 -4.26,-36.29 z" style="fill:#ffffff;fill-opacity:1;fill-rule:nonzero;stroke:none" id="path5789" inkscape:connector-curvature="0"></path>
        <path d="m 8419.57,2751.6 -136.41,-80.62 44.77,-75.75 c 2.85,-4.8 5.74,-7.81 8.75,-9.06 2.93,-1.17 7.19,-1.05 12.77,0.31 l 2.89,-4.88 -50.31,-29.72 -2.89,4.88 c 3.87,4.14 5.98,7.73 6.21,10.82 0.31,3.16 -0.97,7.15 -3.87,12.03 l -97.61,165.16 c -2.93,4.96 -5.86,8.08 -8.79,9.41 -2.97,1.33 -7.07,1.17 -12.35,-0.43 l -3.2,5.35 50.31,29.73 3.21,-5.35 c -4.07,-3.87 -6.25,-7.46 -6.64,-10.78 -0.32,-3.25 0.97,-7.35 3.9,-12.27 l 40.94,-69.3 136.41,80.63 -40.94,69.26 c -2.93,4.96 -5.86,8.08 -8.79,9.41 -2.97,1.33 -7.07,1.17 -12.34,-0.43 l -3.21,5.35 50.43,29.81 3.17,-5.36 c -4.03,-3.9 -6.25,-7.5 -6.6,-10.78 -0.32,-3.28 0.97,-7.38 3.86,-12.3 l 97.62,-165.16 c 2.85,-4.8 5.78,-7.85 8.75,-9.06 2.93,-1.17 7.19,-1.09 12.77,0.31 l 2.89,-4.92 -50.39,-29.77 -2.89,4.89 c 3.87,4.14 5.98,7.73 6.21,10.82 0.32,3.16 -0.97,7.19 -3.86,12.03 z" style="fill:#ffffff;fill-opacity:1;fill-rule:nonzero;stroke:none" id="path5791" inkscape:connector-curvature="0"></path>
        <path d="m 8461.13,2916.25 -2.34,5.27 53.4,23.79 2.34,-5.31 c -4.45,-3.4 -7.03,-6.72 -7.81,-9.92 -0.67,-3.2 0.16,-7.46 2.46,-12.7 l 50.47,-113.32 4.3,-9.61 c 9.21,-20.74 20.11,-32.93 32.69,-36.48 15.98,-4.18 38.28,0.12 66.95,12.85 31.64,14.1 50.39,29.34 56.18,45.74 3.75,9.73 1.68,23.44 -6.18,41.1 l -5.54,12.46 -50.47,113.36 c -2.35,5.23 -4.96,8.63 -7.85,10.23 -2.85,1.64 -7.03,1.95 -12.54,0.9 l -2.35,5.31 48.6,21.6 2.34,-5.27 c -4.26,-3.32 -6.72,-6.56 -7.42,-9.77 -0.66,-3.2 0.16,-7.42 2.46,-12.65 l 52.77,-118.56 c 7.27,-16.29 11.8,-30.23 13.6,-41.83 1.76,-11.53 -0.74,-23.32 -7.5,-35.43 -6.41,-11.21 -15.39,-20.78 -27.03,-28.6 -11.53,-7.89 -25.32,-15.39 -41.37,-22.53 -11.17,-5 -21.6,-9.03 -31.25,-12.15 -9.65,-3.21 -19.65,-5.24 -30,-6.06 -10.31,-0.78 -20.12,0.35 -29.38,3.36 -11.48,3.99 -20.5,10.31 -27.03,19.02 -6.56,8.68 -13.12,20.47 -19.72,35.32 l -52.78,118.55 c -2.34,5.24 -4.88,8.67 -7.65,10.31 -2.78,1.68 -6.92,2 -12.35,1.02 z" style="fill:#ffffff;fill-opacity:1;fill-rule:nonzero;stroke:none" id="path5793" inkscape:connector-curvature="0"></path>
        <path d="m 8960.35,2862.42 -160.39,160.78 55.78,-169.72 c 1.76,-5.36 3.91,-8.99 6.41,-10.9 2.54,-1.8 6.64,-2.58 12.3,-2.38 l 1.8,-5.43 -50.51,-16.61 -1.79,5.43 c 4.68,3.21 7.5,6.25 8.39,9.22 0.98,3.01 0.55,7.23 -1.21,12.58 l -59.88,182.27 c -1.8,5.46 -3.98,9.14 -6.56,11.09 -2.62,1.91 -6.68,2.66 -12.19,2.23 l -1.91,5.9 69.8,22.92 1.91,-5.89 c -6.56,-3.68 -9.21,-7.35 -8,-11.02 0.86,-2.66 4.1,-6.84 9.65,-12.54 l 120.27,-122.07 24.45,169.61 c 1.29,7.31 1.49,12.31 0.59,15.04 -1.33,4.06 -5.59,5.78 -12.74,5.08 l -1.95,5.9 69.81,22.97 1.95,-5.94 c -4.57,-2.85 -7.35,-5.86 -8.32,-9.06 -1.02,-3.13 -0.63,-7.39 1.13,-12.74 l 59.88,-182.26 c 1.72,-5.28 3.87,-8.79 6.45,-10.67 2.65,-1.87 6.72,-2.73 12.26,-2.66 l 1.8,-5.39 -55.19,-18.16 -1.8,5.43 c 4.61,3.24 7.38,6.33 8.36,9.3 0.98,3.04 0.58,7.18 -1.17,12.5 l -55.78,169.72 z" style="fill:#ffffff;fill-opacity:1;fill-rule:nonzero;stroke:none" id="path5795" inkscape:connector-curvature="0"></path>
        <path d="m 9299.73,3028.52 -122.35,-30.98 -8,-43.79 c -0.9,-4.88 -0.9,-9.14 0.03,-12.73 1.37,-3.95 5.67,-6.06 12.89,-6.29 l 1.37,-5.51 -57.58,-14.57 -1.4,5.51 c 8.55,4.22 13.98,12.11 16.29,23.63 l 36.13,196.17 c 1.84,10.9 2.3,18.09 1.41,21.64 -1.18,4.57 -5.4,6.25 -12.66,5 l -1.56,6.02 67.81,17.18 1.52,-6.05 c -6.48,-2.89 -9.18,-6.6 -8.04,-11.13 0.58,-2.27 1.6,-4.57 3.08,-6.88 1.53,-2.19 3.32,-4.49 5.39,-6.91 2.11,-2.42 4.03,-4.65 5.78,-6.64 l 114.61,-142.54 c 6.84,-8.24 12.58,-14.26 17.23,-18.01 4.65,-3.79 10.35,-5.35 17.11,-4.65 l 1.41,-5.51 -61.02,-15.46 -1.41,5.54 c 6.21,2.89 8.83,6.29 7.85,10.16 -0.23,0.9 -0.54,1.6 -0.89,2.11 -0.35,0.58 -0.75,1.09 -1.18,1.6 -0.35,0.51 -0.66,0.98 -1.01,1.41 z m -15.94,20 -79.73,101.48 -22.61,-127.38 z" style="fill:#ffffff;fill-opacity:1;fill-rule:nonzero;stroke:none" id="path5797" inkscape:connector-curvature="0"></path>
        <path d="m 9412.77,3192.81 35.16,-175.15 c 1.13,-5.55 2.81,-9.42 5.08,-11.57 2.3,-2.11 6.29,-3.39 11.95,-3.86 l 1.09,-5.59 -52.1,-10.47 -1.14,5.59 c 5.04,2.62 8.17,5.35 9.42,8.12 1.32,2.93 1.44,7.15 0.31,12.7 l -37.77,188.08 c -1.14,5.63 -2.86,9.54 -5.2,11.76 -2.34,2.23 -6.29,3.48 -11.8,3.67 l -1.25,6.1 76.8,15.43 1.21,-6.1 c -7.15,-3.36 -10.23,-7.42 -9.26,-12.18 0.9,-4.61 4.73,-9.42 11.41,-14.34 l 170.2,-127.77 -32.86,163.43 c -1.13,5.63 -2.85,9.57 -5.19,11.8 -2.35,2.23 -6.29,3.44 -11.8,3.63 l -1.25,6.14 52.27,10.47 1.21,-6.1 c -5,-2.3 -8.17,-4.96 -9.46,-7.93 -1.32,-2.97 -1.4,-7.26 -0.27,-12.85 l 37.77,-188.12 c 1.14,-5.55 2.82,-9.42 5.08,-11.57 2.31,-2.11 6.29,-3.4 11.96,-3.86 l 1.09,-5.59 -61.72,-12.38 -1.09,5.58 c 3.71,2.15 6.29,3.79 7.65,4.92 1.45,1.18 1.92,3.01 1.45,5.43 -0.63,3.05 -1.95,5.39 -3.95,7.11 -2.03,1.72 -5.27,4.14 -9.68,7.27 z" style="fill:#ffffff;fill-opacity:1;fill-rule:nonzero;stroke:none" id="path5799" inkscape:connector-curvature="0"></path>
        <path d="m 9773.01,3059.92 0.94,-5.62 -57.62,-9.81 -0.94,5.63 c 5.08,2.46 8.32,5.08 9.65,7.85 1.41,2.85 1.64,7.07 0.7,12.65 l -32.15,189.15 c -0.97,5.62 -2.57,9.61 -4.88,11.91 -2.26,2.3 -6.17,3.63 -11.68,4.02 l -1.01,6.14 57.57,9.8 1.06,-6.17 c -5.16,-2.19 -8.48,-4.73 -10.04,-7.7 -1.45,-2.93 -1.68,-7.22 -0.74,-12.85 l 32.15,-189.14 c 0.93,-5.51 2.57,-9.37 4.92,-11.6 2.3,-2.15 6.33,-3.59 12.07,-4.26 z" style="fill:#ffffff;fill-opacity:1;fill-rule:nonzero;stroke:none" id="path5801" inkscape:connector-curvature="0"></path>
        <path d="m 9986.64,3330.35 0.51,-3.51 -130.24,-235.08 138.01,20.43 c 5.68,0.86 9.58,2.38 11.98,4.61 2.5,2.3 3.9,6.17 4.3,11.6 l 5.6,0.86 7.5,-50.51 -5.6,-0.82 c -2,5.08 -4.5,8.36 -7.4,9.88 -3,1.45 -7.3,1.72 -12.9,0.9 l -189.34,-28.05 -0.7,4.81 131.64,234.3 -136.21,-20.2 c -5.63,-0.82 -9.57,-2.42 -11.91,-4.8 -2.31,-2.31 -3.76,-6.25 -4.3,-11.84 l -6.1,-0.9 -7.46,50.51 6.06,0.9 c 2.11,-4.92 4.61,-8.13 7.5,-9.65 3.01,-1.52 7.22,-1.88 12.77,-1.06 z" style="fill:#ffffff;fill-opacity:1;fill-rule:nonzero;stroke:none" id="path5803" inkscape:connector-curvature="0"></path>
        <path d="m 10219.5,3184.57 -125.3,-15.04 -13.5,-42.42 c -1.5,-4.73 -2.1,-8.95 -1.6,-12.66 0.8,-4.06 4.8,-6.68 12,-7.85 l 0.6,-5.66 -59,-7.07 -0.6,5.66 c 9,3.09 15.4,10.2 19.2,21.33 l 60.9,189.96 c 3.2,10.55 4.6,17.62 4.1,21.25 -0.5,4.69 -4.5,6.88 -11.9,6.6 l -0.7,6.17 69.4,8.32 0.7,-6.17 c -6.8,-2.03 -9.9,-5.39 -9.4,-10 0.3,-2.34 1,-4.76 2.2,-7.19 1.2,-2.38 2.7,-4.92 4.5,-7.57 1.8,-2.7 3.3,-5.12 4.9,-7.35 l 95.4,-156.01 c 5.7,-9.03 10.6,-15.75 14.8,-20.08 4.1,-4.34 9.5,-6.6 16.3,-6.8 l 0.7,-5.62 -62.5,-7.54 -0.7,5.66 c 6.6,2.07 9.6,5.12 9.1,9.1 -0.1,0.94 -0.3,1.64 -0.5,2.19 -0.4,0.63 -0.7,1.21 -1,1.72 -0.3,0.55 -0.6,1.05 -0.8,1.52 z m -13.2,21.88 -66.1,110.85 -38.8,-123.43 z" style="fill:#ffffff;fill-opacity:1;fill-rule:nonzero;stroke:none" id="path5805" inkscape:connector-curvature="0"></path>
        <path d="m 10545.6,3372.23 -22.5,-48.6 -5.5,2.62 c 0.8,4.26 1.1,6.68 1.1,7.23 -0.4,4.06 -2.5,7.14 -6.3,9.25 -3.7,2.15 -8.9,4.61 -15.6,7.31 -21.4,8.28 -44.8,11.29 -70.2,8.94 -30.6,-2.85 -55.4,-13.51 -74.3,-32.03 -21.1,-20.86 -30.2,-47.61 -27.1,-80.27 1.3,-14.26 6,-27.7 14.1,-40.31 8.2,-12.58 18.5,-22.82 30.9,-30.71 21,-13.67 46.1,-19.18 75.4,-16.48 14,1.33 27.8,4.96 41.2,10.94 13.5,6.05 25.1,13.9 35.1,23.51 2,1.8 3.9,3.48 5.5,5.08 1.7,1.64 3.3,3.52 4.7,5.59 1.5,2.07 2.1,4.06 1.9,6.01 -0.1,1.41 -0.8,3.4 -2.2,5.94 -1.2,2.62 -2.2,4.14 -2.7,4.61 l 4.5,3.55 37.7,-39.45 -4,-4.26 c -4.9,3.91 -8.6,5.78 -11.2,5.55 -1.6,-0.16 -3.4,-1.25 -5.4,-3.2 -14.6,-14.03 -30.9,-25.24 -48.9,-33.64 -18.1,-8.43 -37.1,-13.59 -57.1,-15.43 -39.3,-3.63 -72.4,3.64 -99.2,21.8 -14.6,9.88 -26.5,22.62 -35.9,38.24 -9.3,15.59 -14.8,32.15 -16.4,49.73 -1.9,19.88 0.2,38.05 6.1,54.49 5.9,16.53 14.9,30.86 27,43.05 12.1,12.19 26.3,21.87 42.8,29.1 16.5,7.19 34.5,11.68 53.9,13.48 34.8,3.2 68.6,-2.23 101.4,-16.29 3.9,-1.1 6.1,-1.6 6.7,-1.56 2.3,0.23 5.3,2.96 9,8.28 z" style="fill:#ffffff;fill-opacity:1;fill-rule:nonzero;stroke:none" id="path5807" inkscape:connector-curvature="0"></path>
        <path d="m 10676.7,3163.95 0.4,-5.67 -58.3,-4.33 -0.4,5.7 c 5.3,1.95 8.8,4.26 10.4,6.91 1.7,2.7 2.3,6.88 1.9,12.5 l -14.2,191.33 c -0.4,5.74 -1.7,9.84 -3.7,12.34 -2.1,2.5 -5.8,4.22 -11.2,5.08 l -0.5,6.21 58.3,4.34 0.4,-6.21 c -5.3,-1.72 -8.9,-3.95 -10.7,-6.72 -1.7,-2.81 -2.4,-7.03 -2,-12.77 l 14.2,-191.33 c 0.4,-5.55 1.7,-9.57 3.8,-11.99 2.1,-2.35 6,-4.14 11.6,-5.39 z" style="fill:#ffffff;fill-opacity:1;fill-rule:nonzero;stroke:none" id="path5809" inkscape:connector-curvature="0"></path>
        <path d="m 11006.1,3298.32 c 0.9,-17.58 -1.8,-34.69 -8.2,-51.25 -6.3,-16.48 -15.8,-30.78 -28.5,-42.89 -25.1,-23.71 -58.8,-36.72 -101,-39.1 -42.4,-2.35 -77.4,6.83 -105,27.62 -13.8,10.58 -24.9,23.71 -33.2,39.45 -8.2,15.78 -12.7,32.46 -13.7,50.04 -1,17.73 1.7,34.84 8.1,51.33 6.5,16.56 16,30.86 28.6,42.81 12.9,12.26 28,21.56 45.4,27.93 17.5,6.4 36.1,10.15 55.9,11.29 42.2,2.34 77.1,-6.92 104.7,-27.74 14,-10.54 25,-23.67 33.1,-39.37 8.2,-15.67 12.8,-32.39 13.8,-50.12 z m -32.1,-1.8 c -1.1,20.24 -7.3,37.7 -18.4,52.35 -11.1,14.65 -25.5,25.51 -43.3,32.58 -17.7,7.1 -36.4,10.11 -56.4,8.98 -20.1,-1.09 -38.6,-6.21 -55.5,-15.23 -16.9,-8.99 -30,-21.37 -39.5,-37.19 -9.4,-15.78 -13.5,-33.79 -12.3,-54.03 1,-20.23 7.2,-37.69 18.2,-52.34 11.2,-14.69 25.6,-25.55 43.4,-32.66 17.8,-7.07 36.7,-10 56.9,-8.9 19.9,1.13 38.3,6.17 55,15.12 16.9,9.06 30,21.48 39.4,37.26 9.5,15.82 13.6,33.83 12.5,54.06 z m -122.9,195 49.7,2.78 0.3,-5.71 c -4.8,-0.7 -8.3,-2.93 -10.6,-6.71 l -25.6,-38.44 c -1.1,-1.64 -1.7,-2.85 -1.7,-3.64 0.2,-2.34 2.2,-3.43 5.9,-3.24 l 0.3,-5.66 -36.8,-2.07 -0.4,5.7 c 5.1,0.27 8.4,3.13 10.2,8.52 l 14.3,35.54 c -0.1,1.21 -0.6,2.7 -1.3,4.46 -0.8,1.83 -2.1,2.73 -4,2.77 z" style="fill:#ffffff;fill-opacity:1;fill-rule:nonzero;stroke:none" id="path5811" inkscape:connector-curvature="0"></path>
        <path d="m 11091.3,3384.02 5.5,-178.55 c 0.2,-5.67 1.2,-9.73 3.1,-12.27 1.9,-2.42 5.7,-4.37 11.1,-5.78 l 0.2,-5.66 -53.1,-1.64 -0.2,5.66 c 5.4,1.76 8.9,3.91 10.7,6.45 1.7,2.65 2.5,6.79 2.3,12.46 l -5.9,191.76 c -0.2,5.74 -1.2,9.88 -3.2,12.46 -1.9,2.61 -5.6,4.45 -11,5.58 l -0.2,6.21 78.3,2.42 0.2,-6.21 c -7.6,-2.11 -11.3,-5.58 -11.2,-10.46 0.2,-4.73 3.1,-10.08 8.9,-16.06 l 146.5,-154.3 -5.1,166.64 c -0.2,5.71 -1.3,9.89 -3.2,12.47 -1.9,2.57 -5.6,4.45 -11,5.58 l -0.2,6.21 53.2,1.64 0.2,-6.21 c -5.3,-1.48 -8.9,-3.55 -10.6,-6.25 -1.8,-2.69 -2.6,-6.91 -2.5,-12.65 l 6,-191.76 c 0.1,-5.67 1.2,-9.73 3.1,-12.27 1.9,-2.46 5.6,-4.37 11.1,-5.78 l 0.1,-5.7 -62.9,-1.96 -0.1,5.71 c 4,1.48 6.8,2.69 8.4,3.59 1.6,0.9 2.3,2.62 2.3,5.12 -0.2,3.08 -1,5.62 -2.8,7.65 -1.6,2.04 -4.5,4.97 -8.3,8.79 z" style="fill:#ffffff;fill-opacity:1;fill-rule:nonzero;stroke:none" id="path5813" inkscape:connector-curvature="0"></path>
        <path d="m 11524.8,3190.82 v 5.66 c 5.5,1.57 9.1,3.6 10.9,6.1 1.9,2.58 2.8,6.68 2.9,12.34 l 0.6,191.88 c 0,5.7 -0.9,9.92 -2.8,12.58 -1.8,2.65 -5.4,4.6 -10.8,5.93 v 6.21 l 121.9,-0.39 c 13.4,-0.04 25.6,-0.74 36.4,-2.07 10.8,-1.33 21.3,-4.06 31.6,-8.16 10.4,-4.1 19.7,-10.08 27.8,-17.93 8,-7.7 14.8,-16.6 20.3,-26.72 5.6,-10.12 9.8,-20.82 12.6,-32.15 2.8,-11.25 4.2,-22.62 4.2,-34.06 -0.1,-17.54 -3.4,-34.57 -9.9,-51.02 -6.4,-16.44 -15.7,-30.19 -27.8,-41.25 -12.5,-11.32 -26.3,-18.79 -41.4,-22.3 -15,-3.48 -33.2,-5.16 -54.7,-5.08 z m 44.5,23.13 75.7,-0.24 c 11.4,-0.04 21.7,0.59 31.1,1.84 9.3,1.25 18.3,3.83 26.8,7.73 8.6,3.91 16,9.57 22.2,16.99 15.3,18.01 23,41.29 23.1,69.89 0.1,29.64 -7.4,53.16 -22.6,70.54 -9.3,10.75 -20.4,17.85 -33.3,21.25 -12.9,3.48 -28.5,5.28 -46.6,5.32 l -75.8,0.27 z" style="fill:#ffffff;fill-opacity:1;fill-rule:nonzero;stroke:none" id="path5815" inkscape:connector-curvature="0"></path>
        <path d="m 11872.5,3300.62 -2.2,-88.9 148.8,-3.63 c 5.6,-0.12 9.8,0.7 12.6,2.5 2.7,1.87 4.8,5.43 6.2,10.7 l 6.1,-0.16 -1.3,-51.01 -6.1,0.15 c -1,5.32 -3,8.99 -5.6,10.98 -2.7,1.95 -6.9,2.97 -12.5,3.13 l -193.1,4.68 0.2,6.14 c 5.3,1.21 9,3.12 10.9,5.74 1.9,2.58 3,6.72 3.1,12.38 l 4.7,191.8 c 0.1,5.74 -0.7,9.92 -2.5,12.61 -1.8,2.7 -5.4,4.77 -10.7,6.18 l 0.2,5.82 191.6,-4.69 c 5.7,-0.12 9.9,0.74 12.6,2.62 2.7,1.91 4.8,5.43 6.2,10.46 l 5.8,-0.11 -1.2,-51.02 -5.8,0.12 c -1.1,5.43 -3,9.14 -5.7,11.21 -2.5,2.07 -6.7,3.16 -12.4,3.32 l -147.4,3.59 -1.9,-81.28 93.7,-2.31 c 5.7,-0.12 9.8,0.78 12.5,2.74 2.8,1.91 4.9,5.54 6.3,10.89 l 6.1,-0.15 -1.2,-51.02 -6.1,0.16 c -1.2,5.19 -3.1,8.79 -5.8,10.78 -2.6,2.07 -6.7,3.16 -12.3,3.32 z" style="fill:#ffffff;fill-opacity:1;fill-rule:nonzero;stroke:none" id="path5817" inkscape:connector-curvature="0"></path>
        <path d="m 12133.3,3203.87 146.9,-6.45 c 5.7,-0.27 9.9,0.47 12.6,2.23 2.8,1.72 4.9,5.27 6.4,10.58 l 5.8,-0.27 -2.3,-50.98 -5.8,0.28 c -1,5.39 -2.8,9.1 -5.4,11.09 -2.5,1.95 -6.7,3.09 -12.4,3.32 l -191.1,8.44 0.2,6.13 c 5.5,1.1 9.2,2.97 11.1,5.51 2,2.58 3.2,6.68 3.4,12.34 l 8.4,191.64 c 0.3,5.75 -0.4,9.97 -2.2,12.7 -1.8,2.73 -5.3,4.84 -10.6,6.37 l 0.3,5.82 58.3,-2.58 -0.2,-5.82 c -5.5,-1.02 -9.3,-2.85 -11.4,-5.39 -2.1,-2.58 -3.2,-6.72 -3.5,-12.42 z" style="fill:#ffffff;fill-opacity:1;fill-rule:nonzero;stroke:none" id="path5819" inkscape:connector-curvature="0"></path>
        <path d="m 12737.8,3369.88 -27,-44.57 -5.1,2.54 c 0.9,4.1 1.4,7.15 1.6,9.14 0.2,2.58 -0.9,4.85 -3.5,6.88 -2.6,2.07 -5.6,4.1 -9.1,6.09 -18.6,12.07 -41.5,19.22 -68.9,21.41 -20.4,1.64 -39.8,-0.43 -57.9,-6.21 -18.1,-5.75 -27.8,-17.35 -29.2,-34.85 -0.6,-6.91 0.8,-13.32 4.2,-19.22 3.5,-5.78 8.6,-10.23 15.3,-13.28 7.5,-3.12 17.1,-5.66 28.9,-7.61 6.9,-0.79 14.5,-1.72 22.8,-2.82 8.3,-1.09 15,-1.91 20.1,-2.46 19.2,-2.19 34.4,-4.49 45.6,-6.91 11.1,-2.31 21.2,-6.64 30.4,-12.89 8.5,-5.86 14.7,-13.56 18.6,-23.05 3.8,-9.45 5.3,-19.57 4.4,-30.43 -1.3,-17.15 -8.2,-30.86 -20.5,-41.13 -12.3,-10.24 -27.2,-17.19 -44.7,-20.98 -17.4,-3.71 -34.4,-4.88 -50.8,-3.55 -28.5,2.3 -55.1,9.57 -80,21.83 -12,6.02 -22.4,11.84 -31.2,17.5 -1.9,1.68 -3.4,2.54 -4.7,2.66 -1.9,0.15 -4.7,-1.25 -8.2,-4.22 l -2.4,-2.5 -4.6,3.52 30.9,43.39 5,-3.08 c -1.5,-1.29 -2.5,-4.34 -2.9,-9.03 -0.1,-1.52 0.7,-3.24 2.2,-5.23 1.7,-1.95 3.7,-3.87 6.2,-5.78 2.5,-1.95 4.9,-3.63 7.3,-5.12 2.3,-1.48 3.9,-2.5 4.8,-3.08 23.5,-14.89 49.6,-23.52 78.3,-25.82 11.9,-0.94 24.2,-0.4 37,1.68 12.8,2.1 23.9,6.48 33.4,13.12 9.4,6.72 14.6,16.13 15.6,28.16 0.5,6.64 -0.9,12.93 -4.3,18.79 -3.3,5.94 -8,10.35 -13.9,13.21 -5.9,2.46 -12.1,4.41 -18.6,5.78 -6.5,1.4 -15,2.65 -25.3,3.79 -10.2,1.17 -15.6,1.79 -16.1,1.83 -20.8,2.66 -36.1,4.85 -45.7,6.57 -9.6,1.71 -20.1,5 -31.4,9.88 -11.4,4.92 -20.5,12.03 -27.1,21.33 -6.6,9.33 -9.4,21.36 -8.2,36.13 1.4,17.15 8.2,30.78 20.4,40.94 12.3,10.19 27,17.18 44.3,20.89 17.3,3.72 34.1,4.89 50.5,3.6 32.6,-2.66 63.3,-11.92 92.3,-27.81 4.1,-2.07 6.6,-3.13 7.3,-3.17 2.8,-0.23 5.8,2.15 8.8,7.15 z" style="fill:#ffffff;fill-opacity:1;fill-rule:nonzero;stroke:none" id="path5821" inkscape:connector-curvature="0"></path>
        <path d="m 12819.1,3245.82 -9.7,-88.44 148,-16.09 c 5.6,-0.63 9.9,-0.16 12.8,1.41 2.9,1.6 5.2,5 7,10.15 l 6.1,-0.66 -5.5,-50.74 -6.1,0.66 c -0.6,5.39 -2.2,9.22 -4.7,11.41 -2.5,2.14 -6.6,3.55 -12.2,4.14 l -192,20.93 0.6,6.1 c 5.5,0.74 9.3,2.34 11.5,4.8 2.1,2.42 3.5,6.45 4.1,12.07 l 20.8,190.74 c 0.6,5.71 0.2,9.97 -1.4,12.78 -1.6,2.85 -5,5.19 -10.2,7.07 l 0.7,5.74 190.6,-20.74 c 5.6,-0.63 9.8,-0.12 12.7,1.52 2.9,1.72 5.3,5 7.1,9.92 l 5.8,-0.62 -5.5,-50.74 -5.8,0.62 c -0.6,5.51 -2.2,9.38 -4.7,11.64 -2.4,2.31 -6.4,3.75 -12.2,4.38 l -146.5,15.93 -8.8,-80.82 93.2,-10.15 c 5.7,-0.63 9.9,-0.08 12.8,1.64 2.9,1.68 5.3,5.15 7.1,10.35 l 6.1,-0.66 -5.5,-50.75 -6.1,0.67 c -0.7,5.27 -2.3,9.02 -4.8,11.25 -2.4,2.26 -6.4,3.71 -12.1,4.33 z" style="fill:#ffffff;fill-opacity:1;fill-rule:nonzero;stroke:none" id="path5823" inkscape:connector-curvature="0"></path>
        <path d="m 13083.5,3210.9 -12.2,-83.67 c -0.8,-5.51 -0.5,-9.69 1.1,-12.54 1.5,-2.78 4.9,-5.35 10.1,-7.78 l -0.8,-5.62 -57.8,8.44 0.8,5.66 c 5.6,0.74 9.5,2.27 11.6,4.45 2.3,2.31 3.8,6.25 4.6,11.84 l 27.8,189.84 c 0.8,5.67 0.5,9.93 -1,12.82 -1.4,2.89 -4.7,5.39 -9.8,7.42 l 0.9,6.17 141.4,-20.7 c 14.1,-2.07 26.4,-4.89 36.7,-8.4 10.3,-3.48 19.3,-8.99 26.8,-16.53 7.1,-6.83 12.2,-14.92 15.2,-24.25 3,-9.38 3.8,-19.03 2.4,-29.03 -5.6,-37.69 -31.3,-55.58 -77.2,-53.63 l 45.7,-103.2 c 2.6,-5.82 7.8,-9.96 15.6,-12.5 l -0.8,-5.2 -58.7,8.6 0.8,5.66 c 5.7,0.74 8.7,2.07 9,3.98 0.2,1.22 -0.9,4.93 -3.2,11.22 l -42.3,94.25 z m 3.4,23.48 91.1,-13.33 c 21.7,-3.2 38.8,-3.35 51.2,-0.46 12.5,2.89 20,13.36 22.7,31.44 0.9,6.29 0.4,12.62 -1.5,18.87 -1.8,6.29 -5,11.64 -9.4,16.05 -9,8.13 -24.9,13.87 -47.7,17.19 l -94.1,13.79 z" style="fill:#ffffff;fill-opacity:1;fill-rule:nonzero;stroke:none" id="path5825" inkscape:connector-curvature="0"></path>
      </g>
    </g>
  </g>
</svg>
